HIERARCHY
ROOT Hips
{
	OFFSET 0.000000 0.000000 0.000000
	CHANNELS 6 Xposition Yposition Zposition Xrotation Yrotation Zrotation
	JOINT LeftUpLeg_virtual
	{
		OFFSET 0.000000 0.000000 0.000000
		CHANNELS 3 Xrotation Yrotation Zrotation
		JOINT LeftUpLeg
		{
			OFFSET 10.205400 -3.823500 0.155100
			CHANNELS 3 Xrotation Yrotation Zrotation
			JOINT LeftLeg
			{
				OFFSET 0.708757 -12.982077 0.567790
				CHANNELS 3 Xrotation Yrotation Zrotation
				JOINT LeftFoot
				{
					OFFSET -0.708756 -10.717838 -2.184338
					CHANNELS 3 Xrotation Yrotation Zrotation
					JOINT LeftToeBase
					{
						OFFSET 0.108149 -7.191104 7.560241
						CHANNELS 3 Xrotation Yrotation Zrotation
						JOINT LeftToe_End
						{
							OFFSET 0.070230 0.081724 4.490308
							CHANNELS 3 Xrotation Yrotation Zrotation
							End Site
							{
								OFFSET 0 0 0
							}
						}
					}
				}
			}
		}
	}
	JOINT RightUpLeg_virtual
	{
		OFFSET 0.000000 0.000000 0.000000
		CHANNELS 3 Xrotation Yrotation Zrotation
		JOINT RightUpLeg
		{
			OFFSET -10.205400 -3.823500 0.005500
			CHANNELS 3 Xrotation Yrotation Zrotation
			JOINT RightLeg
			{
				OFFSET -0.708756 -12.982134 0.610632
				CHANNELS 3 Xrotation Yrotation Zrotation
				JOINT RightFoot
				{
					OFFSET 0.708754 -10.717769 -1.945823
					CHANNELS 3 Xrotation Yrotation Zrotation
					JOINT RightToeBase
					{
						OFFSET -0.108140 -7.191069 7.372968
						CHANNELS 3 Xrotation Yrotation Zrotation
						JOINT RightToe_End
						{
							OFFSET -0.070227 0.081735 4.479403
							CHANNELS 3 Xrotation Yrotation Zrotation
							End Site
							{
								OFFSET 0 0 0
							}
						}
					}
				}
			}
		}
	}
	JOINT Spine_virtual
	{
		OFFSET 0.000000 0.000000 0.000000
		CHANNELS 3 Xrotation Yrotation Zrotation
		JOINT Spine
		{
			OFFSET 0.000000 6.876099 0.125700
			CHANNELS 3 Xrotation Yrotation Zrotation
			JOINT Spine1
			{
				OFFSET 0.000000 5.730043 0.104720
				CHANNELS 3 Xrotation Yrotation Zrotation
				JOINT Spine1_split
				{
					OFFSET 0.000000 5.730043 0.104720
					CHANNELS 3 Xrotation Yrotation Zrotation
					JOINT Spine2
					{
						OFFSET 0.000000 5.730043 0.104720
						CHANNELS 3 Xrotation Yrotation Zrotation
						JOINT Neck_virtual
						{
							OFFSET 0.000000 0.000000 0.000000
							CHANNELS 3 Xrotation Yrotation Zrotation
							JOINT Neck
							{
								OFFSET 0.000000 10.314075 0.188496
								CHANNELS 3 Xrotation Yrotation Zrotation
								JOINT Head
								{
									OFFSET 0.000000 7.643700 -2.377400
									CHANNELS 3 Xrotation Yrotation Zrotation
									JOINT HeadTop_End
									{
										OFFSET 0.000000 43.788605 -13.619600
										CHANNELS 3 Xrotation Yrotation Zrotation
										End Site
										{
											OFFSET 0 0 0
										}
									}
								}
							}
						}
						JOINT LeftShoulder_virtual
						{
							OFFSET 0.000000 0.000000 0.000000
							CHANNELS 3 Xrotation Yrotation Zrotation
							JOINT LeftShoulder
							{
								OFFSET 2.196100 4.412489 0.087492
								CHANNELS 3 Xrotation Yrotation Zrotation
								JOINT LeftShoulder_split
								{
									OFFSET 2.196100 4.412489 0.087492
									CHANNELS 3 Xrotation Yrotation Zrotation
									JOINT LeftArm
									{
										OFFSET 8.771219 -2.981674 -0.026999
										CHANNELS 3 Xrotation Yrotation Zrotation
										JOINT LeftForeArm
										{
											OFFSET 8.512804 0.000000 -0.000000
											CHANNELS 3 Xrotation Yrotation Zrotation
											JOINT LeftHand
											{
												OFFSET 18.484802 0.000000 -0.000000
												CHANNELS 3 Xrotation Yrotation Zrotation
												End Site
												{
													OFFSET 0 0 0
												}
											}
										}
									}
								}
							}
						}
						JOINT RightShoulder_virtual
						{
							OFFSET 0.000000 0.000000 0.000000
							CHANNELS 3 Xrotation Yrotation Zrotation
							JOINT RightShoulder
							{
								OFFSET -2.196100 4.412496 0.070690
								CHANNELS 3 Xrotation Yrotation Zrotation
								JOINT RightShoulder_split
								{
									OFFSET -2.196100 4.412496 0.070690
									CHANNELS 3 Xrotation Yrotation Zrotation
									JOINT RightArm
									{
										OFFSET -8.771282 -2.981682 -0.094208
										CHANNELS 3 Xrotation Yrotation Zrotation
										JOINT RightForeArm
										{
											OFFSET -8.494598 0.000000 0.000000
											CHANNELS 3 Xrotation Yrotation Zrotation
											JOINT RightHand
											{
												OFFSET -18.483803 0.000000 0.000001
												CHANNELS 3 Xrotation Yrotation Zrotation
												End Site
												{
													OFFSET 0 0 0
												}
											}
										}
									}
								}
							}
						}
					}
				}
			}
		}
	}
}
MOTION
Frames: 8
Frame Time: 0.03333333
5.760225 33.048244 13.341977 0.000000 0.000000 0.000000 5.685340 27.403089 -13.252350 -91.437675 -16.190704 28.008506 122.126432 -27.943332 7.628289 43.372716 -6.197066 16.140283 -11.932663 -6.381443 -1.847593 0.000000 0.000000 0.000000 -2.385839 23.346584 -11.293755 15.867376 -25.087211 17.429533 19.749328 13.452361 -4.070999 -50.696075 -24.141620 21.313646 13.746821 13.052106 -60.890877 0.000000 0.000000 0.000000 3.299303 14.367598 -12.707504 23.487622 1.122730 6.302408 3.222375 0.390349 -3.360207 0.003674 0.176004 0.196895 0.000000 0.000000 0.000000 1.320175 3.726594 -4.548676 1.639639 16.968444 21.855934 -4.445134 -61.817576 -4.412696 0.000000 0.000000 0.000000 -0.224974 0.830949 -4.182109 1.086994 -21.675575 -11.252793 7.427510 1.775363 2.560411 16.601395 17.113756 -54.601673 144.078551 -68.457975 130.318998 0.000000 0.000000 0.000000 -0.182500 2.019815 -2.819409 -4.348787 4.753286 24.032671 -2.518830 -10.632094 7.543472 7.414642 8.181760 10.499590 -168.432820 52.335778 177.956385 0.000000 0.000000 0.000000 
5.732262 33.028770 16.978065 0.000000 0.000000 0.000000 4.199421 23.220422 -14.288341 -92.653094 -10.210198 30.473435 106.698907 -26.202588 -0.380379 28.300713 -6.686037 19.531682 -8.674625 -6.604161 -0.818674 0.000000 0.000000 0.000000 -1.921206 21.042978 -12.830346 19.467176 -23.726452 15.871283 16.465225 12.116589 -2.241813 -47.409549 -22.218885 20.186974 13.915469 12.969918 -60.780412 0.000000 0.000000 0.000000 4.935285 13.351577 -14.771850 23.347497 1.760557 6.293812 3.332239 0.165250 -3.058459 0.123714 0.414401 0.345605 0.000000 0.000000 0.000000 0.792439 3.604214 -4.322092 2.241221 16.936687 21.362025 -6.457712 -59.460765 -4.981207 0.000000 0.000000 0.000000 -0.423881 0.775922 -3.981447 1.626328 -18.889455 -11.602873 6.431848 2.870527 0.299846 24.031155 18.955389 -54.415530 140.340033 -70.113832 126.623361 0.000000 0.000000 0.000000 -0.809557 1.800876 -2.611937 -4.397335 5.790905 23.950398 -6.503037 -14.032793 7.114731 9.449101 7.911478 11.653531 -167.625082 50.142242 176.918374 0.000000 0.000000 0.000000 
5.670440 32.871670 21.237938 0.000000 0.000000 0.000000 2.356555 16.570623 -14.737984 -92.149128 -5.575022 31.927945 90.999013 -23.899523 -4.515041 16.410033 -9.863936 10.920048 3.230137 -6.462494 1.318325 0.000000 0.000000 0.000000 -1.787010 15.383239 -14.003718 19.575836 -19.379315 11.234982 19.949955 11.563596 -0.094919 -31.703549 -18.026686 23.134669 11.932219 12.081214 -53.761659 0.000000 0.000000 0.000000 6.465271 10.788020 -16.547607 22.537789 2.339173 6.206698 2.948932 -0.188327 -2.529330 0.113494 0.300634 0.309157 0.000000 0.000000 0.000000 0.197554 3.195203 -3.748932 2.303911 16.841867 20.815003 -7.685590 -56.975334 -5.705447 0.000000 0.000000 0.000000 -0.772319 0.464120 -3.725049 2.148447 -15.123403 -12.963705 5.113002 2.222935 -0.770762 31.406016 22.949106 -54.819522 134.764209 -74.097676 121.725637 0.000000 0.000000 0.000000 -1.662986 1.448216 -2.238660 -4.476978 7.234064 24.407905 -8.019483 -13.380966 4.976191 9.645280 3.319568 16.333002 -168.198558 50.099919 176.763766 0.000000 0.000000 0.000000 
5.733088 32.576454 25.643274 0.000000 0.000000 0.000000 -0.109292 8.687042 -14.466455 -87.188225 -1.815976 30.878746 78.356490 -21.946644 -4.215442 9.028306 -11.434527 -3.992332 11.301479 -5.918557 7.338599 0.000000 0.000000 0.000000 -1.805140 7.874612 -14.450659 16.145507 -11.984063 4.569754 29.745573 12.497481 2.178196 -7.403876 -11.106319 25.043116 13.349291 7.480137 -40.241326 0.000000 0.000000 0.000000 5.985082 8.390051 -17.194043 21.197618 2.588341 5.820149 2.023155 -0.546659 -2.020884 0.071672 -0.049342 0.114162 0.000000 0.000000 0.000000 -0.378774 2.689578 -3.139219 2.111752 16.896799 19.988388 -7.108453 -55.155799 -5.824329 0.000000 0.000000 0.000000 -1.376863 0.038137 -3.582874 2.576512 -11.608904 -14.870288 4.517904 0.051190 -0.905403 36.604630 27.413642 -54.973242 125.094546 -79.269632 113.419512 0.000000 0.000000 0.000000 -2.585995 0.999215 -1.950978 -4.498497 8.741270 25.245831 -6.836823 -9.391051 2.606003 10.183126 -2.747984 21.868835 -169.453155 54.774641 177.035689 0.000000 0.000000 0.000000 
5.838778 32.209000 30.080063 0.000000 0.000000 0.000000 -3.152792 0.835142 -13.344415 -75.956567 3.440743 27.218072 68.246328 -17.934118 -2.613826 0.969755 -8.456157 -13.457003 10.807716 -5.452206 15.184038 0.000000 0.000000 0.000000 -1.493482 0.232410 -14.083331 9.147660 -2.443786 -1.304292 41.876597 11.386124 4.507893 15.486952 -6.108349 21.369188 16.913461 1.356817 -24.810686 0.000000 0.000000 0.000000 3.636381 6.910733 -16.206879 19.572440 2.205914 4.959138 0.769275 -0.815816 -1.801299 -0.098482 -0.586639 -0.038877 0.000000 0.000000 0.000000 -1.106239 2.171916 -2.773996 1.928121 17.303308 18.488755 -4.202746 -54.837458 -4.619802 0.000000 0.000000 0.000000 -2.143041 -0.429742 -3.599396 2.756391 -9.600818 -16.842849 4.849169 -2.029244 -1.167183 38.032406 31.108961 -54.170913 91.246000 -83.975496 81.442581 0.000000 0.000000 0.000000 -3.397504 0.494218 -1.955664 -4.390197 10.090992 26.317697 -5.617160 -4.478697 2.331254 12.541063 -5.923953 26.171883 -171.166030 66.861241 177.695923 0.000000 0.000000 0.000000 
5.920381 31.912743 34.070774 0.000000 0.000000 0.000000 -6.350832 -6.538239 -11.751583 -58.276677 10.066468 20.921233 60.204668 -11.067536 -1.166546 -9.971737 -0.808512 -12.900685 7.380693 -5.281546 18.600849 0.000000 0.000000 0.000000 -2.597972 -5.498757 -13.093994 -0.243121 6.713912 -3.785299 53.755044 8.126907 7.475342 29.165748 -5.560134 16.310111 18.849761 -4.575383 -13.491186 0.000000 0.000000 0.000000 -0.765925 5.849782 -13.513065 17.806930 0.966920 3.432281 -0.518694 -1.073425 -2.016926 -0.394508 -1.036407 -0.052747 0.000000 0.000000 0.000000 -2.161746 1.725908 -2.732864 1.893414 18.196594 16.079683 2.292568 -56.123494 -0.637674 0.000000 0.000000 0.000000 -2.853917 -0.913827 -3.677207 2.485103 -9.924683 -18.305643 5.053047 -4.014817 -2.543437 34.887175 32.802878 -51.555279 25.084122 -81.332110 17.624542 0.000000 0.000000 0.000000 -4.120523 -0.105706 -2.321995 -4.093730 10.999482 27.405314 -4.349748 -0.981701 3.592248 16.844259 -1.892463 27.499440 -172.838087 86.606908 178.474359 0.000000 0.000000 0.000000 
5.752312 31.960823 37.497948 0.000000 0.000000 0.000000 -10.192894 -12.214841 -10.094606 -37.960334 14.914258 12.644345 54.201864 -2.874383 -0.120687 -19.248148 7.977159 -8.137507 7.476582 -4.095877 14.032252 0.000000 0.000000 0.000000 -5.994235 -7.440122 -11.389942 -11.317196 12.331304 -3.544679 64.654618 4.459578 10.979301 32.183370 -6.020217 13.951933 19.902973 -10.316196 -10.566298 0.000000 0.000000 0.000000 -6.366756 6.589931 -10.247846 16.019502 -1.039804 1.315675 -1.578695 -1.453895 -2.578933 -0.440467 -1.212191 0.048671 0.000000 0.000000 0.000000 -3.443959 1.249336 -2.915133 2.043258 19.658808 13.102974 13.125744 -57.513635 7.309894 0.000000 0.000000 0.000000 -3.317784 -1.424780 -3.626374 1.754267 -12.721921 -19.083253 4.839049 -5.192479 -4.119399 27.497525 30.897710 -46.803482 7.301568 -72.089648 2.234499 0.000000 0.000000 0.000000 -4.579868 -0.863898 -3.026121 -3.713957 11.557730 27.959273 -3.733288 -0.407143 5.585526 23.717813 11.036962 23.960131 4.731103 70.423219 0.347155 0.000000 0.000000 0.000000 
5.301721 32.596058 40.131226 0.000000 0.000000 0.000000 -15.001004 -14.175957 -8.610526 -19.012699 15.939571 5.705322 49.013622 2.583777 0.688077 -21.255424 14.820416 -6.692449 5.502729 -2.768962 6.284537 0.000000 0.000000 0.000000 -11.954500 -7.117488 -9.386578 -23.959341 14.266602 -1.865872 72.773555 0.429128 13.888770 27.844905 -5.085576 14.943457 22.182817 -14.682596 -16.164894 0.000000 0.000000 0.000000 -11.227784 8.058402 -7.206235 14.262292 -3.612757 -0.797666 -2.053515 -2.075647 -3.181808 -0.224856 -1.317931 0.199442 0.000000 0.000000 0.000000 -4.798731 0.615053 -3.106207 2.417487 21.499569 10.286410 27.181639 -57.307432 18.599052 0.000000 0.000000 0.000000 -3.300330 -1.931992 -3.278724 0.770928 -17.533294 -19.206430 3.857417 -4.910424 -6.297393 17.480145 25.070185 -41.356638 3.478325 -60.477726 0.767409 0.000000 0.000000 0.000000 -4.666540 -1.793844 -3.823628 -3.286975 11.618848 27.809911 -4.215791 -0.671845 5.941982 32.229361 29.506335 15.123340 2.146892 53.290741 2.813035 0.000000 0.000000 0.000000 
